<?xml version="1.0" encoding="UTF-8"?>
<svg xmlns="http://www.w3.org/2000/svg" width="900" height="112" viewBox="0 0 900 112" font-family="'JetBrains Mono','Fira Code','SFMono-Regular',Menlo,Consolas,'DejaVu Sans Mono',monospace">
<defs>
<filter id="glow" x="-30%" y="-30%" width="160%" height="160%"><feGaussianBlur stdDeviation="3" result="b"/><feMerge><feMergeNode in="b"/><feMergeNode in="SourceGraphic"/></feMerge></filter>
<filter id="glow2" x="-30%" y="-30%" width="160%" height="160%"><feGaussianBlur stdDeviation="1.6" result="b"/><feMerge><feMergeNode in="b"/><feMergeNode in="SourceGraphic"/></feMerge></filter>
<pattern id="grid" width="30" height="30" patternUnits="userSpaceOnUse"><path d="M30 0H0V30" fill="none" stroke="#0f2a3a" stroke-width="1" opacity="0.55"/></pattern>
<linearGradient id="bg" x1="0" y1="0" x2="1" y2="1"><stop offset="0" stop-color="#020617"/><stop offset="1" stop-color="#062029"/></linearGradient>
<linearGradient id="acc" x1="0" x2="1"><stop offset="0" stop-color="#00f5d4"/><stop offset="1" stop-color="#22d3ee"/></linearGradient>
<linearGradient id="s0" x1="0" x2="1"><stop offset="0" stop-color="#fbbf24" stop-opacity="0"/><stop offset=".5" stop-color="#fbbf24" stop-opacity=".10"/><stop offset="1" stop-color="#fbbf24" stop-opacity="0"/></linearGradient><linearGradient id="s1" x1="0" x2="1"><stop offset="0" stop-color="#00f5d4" stop-opacity="0"/><stop offset=".5" stop-color="#00f5d4" stop-opacity=".10"/><stop offset="1" stop-color="#00f5d4" stop-opacity="0"/></linearGradient></defs>
<clipPath id="a0"><rect x="0" width="440" height="112" rx="10"/></clipPath><rect x="0.5" y=".5" width="439" height="111" rx="10" fill="url(#bg)" stroke="#12324a"/><rect x="1" y="1" width="438" height="110" rx="10" fill="url(#grid)" opacity=".6"/><polygon points="46.0,32.0 52.3,47.3 68.8,48.6 56.3,59.3 60.1,75.4 46.0,66.8 31.9,75.4 35.7,59.3 23.2,48.6 39.7,47.3" fill="#fbbf24" filter="url(#glow2)"/><text x="90" y="46" font-size="22" font-weight="700" fill="#fbbf24" filter="url(#glow2)">AIR-1</text><text x="90" y="70" font-size="12" fill="#e2e8f0">TEKNOFEST TÜRKSAT Model Satellite Competition</text><text x="90" y="90" font-size="11" fill="#7f93a8">Critical Design Review · 2025 · 2026 cycle</text><g clip-path="url(#a0)"><rect x="-60" width="60" height="112" fill="url(#s0)"><animateTransform attributeName="transform" type="translate" from="0 0" to="500 0" dur="6s" repeatCount="indefinite"/></rect></g><clipPath id="a1"><rect x="460" width="440" height="112" rx="10"/></clipPath><rect x="460.5" y=".5" width="439" height="111" rx="10" fill="url(#bg)" stroke="#12324a"/><rect x="461" y="1" width="438" height="110" rx="10" fill="url(#grid)" opacity=".6"/><polygon points="506.0,32.0 512.3,47.3 528.8,48.6 516.3,59.3 520.1,75.4 506.0,66.8 491.9,75.4 495.7,59.3 483.2,48.6 499.7,47.3" fill="#00f5d4" filter="url(#glow2)"/><text x="550" y="46" font-size="22" font-weight="700" fill="#00f5d4" filter="url(#glow2)">BEST DATA AWARD</text><text x="550" y="70" font-size="12" fill="#e2e8f0">ISRO / IN-SPACe Model Satellite Competition</text><text x="550" y="90" font-size="11" fill="#7f93a8">Winner · 2025</text><g clip-path="url(#a1)"><rect x="400" width="60" height="112" fill="url(#s1)"><animateTransform attributeName="transform" type="translate" from="0 0" to="500 0" dur="8s" repeatCount="indefinite"/></rect></g>
</svg>
