<?xml version="1.0" encoding="UTF-8"?>
<svg xmlns="http://www.w3.org/2000/svg" width="900" height="150" viewBox="0 0 900 150" font-family="'JetBrains Mono','Fira Code','SFMono-Regular',Menlo,Consolas,'DejaVu Sans Mono',monospace">
<defs>
<filter id="glow" x="-30%" y="-30%" width="160%" height="160%"><feGaussianBlur stdDeviation="3" result="b"/><feMerge><feMergeNode in="b"/><feMergeNode in="SourceGraphic"/></feMerge></filter>
<filter id="glow2" x="-30%" y="-30%" width="160%" height="160%"><feGaussianBlur stdDeviation="1.6" result="b"/><feMerge><feMergeNode in="b"/><feMergeNode in="SourceGraphic"/></feMerge></filter>
<pattern id="grid" width="30" height="30" patternUnits="userSpaceOnUse"><path d="M30 0H0V30" fill="none" stroke="#0f2a3a" stroke-width="1" opacity="0.55"/></pattern>
<linearGradient id="bg" x1="0" y1="0" x2="1" y2="1"><stop offset="0" stop-color="#020617"/><stop offset="1" stop-color="#062029"/></linearGradient>
<linearGradient id="acc" x1="0" x2="1"><stop offset="0" stop-color="#00f5d4"/><stop offset="1" stop-color="#22d3ee"/></linearGradient>
</defs>
<clipPath id="pc"><rect width="900" height="150" rx="12"/></clipPath><rect x=".5" y=".5" width="899" height="149" rx="12" fill="url(#bg)" stroke="#12324a"/><rect x="1" y="1" width="898" height="148" rx="12" fill="url(#grid)" opacity=".6"/><rect x="1" y="1" width="898" height="32" rx="11" fill="#0a1b2b"/><rect x="1" y="22" width="898" height="12" fill="#0a1b2b"/><circle cx="22" cy="17" r="5" fill="#ff5f57"/><circle cx="40" cy="17" r="5" fill="#febc2e"/><circle cx="58" cy="17" r="5" fill="#28c840"/><text x="450.0" y="21" text-anchor="middle" font-size="12" fill="#7f93a8">status.sh — live</text><line x1="1" y1="33.5" x2="899" y2="33.5" stroke="#12324a"/><rect x="28" y="42" width="108" height="22" rx="5" fill="#00f5d4" fill-opacity=".12" stroke="#00f5d4" stroke-opacity=".5"/><circle cx="43" cy="53" r="3" fill="#00f5d4"><animate attributeName="opacity" values="1;.2;1" dur="1.5s" repeatCount="indefinite"/></circle><text x="54" y="57" font-size="11" font-weight="700" fill="#00f5d4" letter-spacing="1">BUILDING</text><text x="154" y="57" font-size="13" fill="#e2e8f0">Ground Control Station software · PSIT VYOMNAUTS (CanSat / rocketry)</text><rect x="28" y="73" width="108" height="22" rx="5" fill="#a78bfa" fill-opacity=".12" stroke="#a78bfa" stroke-opacity=".5"/><circle cx="43" cy="84" r="3" fill="#a78bfa"><animate attributeName="opacity" values="1;.2;1" dur="1.9s" repeatCount="indefinite"/></circle><text x="54" y="88" font-size="11" font-weight="700" fill="#a78bfa" letter-spacing="1">EXPLORING</text><text x="154" y="88" font-size="13" fill="#e2e8f0">quantization (PTQ, PEFT/LoRA) · agentic tooling · MCP &amp; agentic memory</text><rect x="28" y="104" width="108" height="22" rx="5" fill="#fbbf24" fill-opacity=".12" stroke="#fbbf24" stroke-opacity=".5"/><circle cx="43" cy="115" r="3" fill="#fbbf24"><animate attributeName="opacity" values="1;.2;1" dur="2.3s" repeatCount="indefinite"/></circle><text x="54" y="119" font-size="11" font-weight="700" fill="#fbbf24" letter-spacing="1">SEEKING</text><text x="154" y="119" font-size="13" fill="#e2e8f0">AI/ML · GenAI · CV · SWE internships · available from January 2027</text>
</svg>
